<svg version="1" xmlns="http://www.w3.org/2000/svg" width="346.667" height="346.667" viewBox="0 0 260.000000 260.000000"><path d="M103.9 12.6c-17.2 3.2-33 13.5-42.4 27.7-13.4 20.2-10.4 48.2 7 65 4.5 4.4 10.7 8.4 19.1 12.4l7.5 3.6-7.3 3.9c-9 4.9-13.1 7.9-18.6 13.8-10.1 10.6-13.2 26.3-7.5 37.3 2.2 4.4 9.1 11.5 13.4 13.9 4.6 2.6 4.8 3.4 1.2 4.3-5.2 1.3-15.1 6.6-17.6 9.5-8.2 9.2-7.2 21.1 2.6 29.6 6.3 5.4 18.1 10.2 29.3 12 2.1.3 4.1.7 4.5.9 2.8 1.8 37.8 2.6 49.9 1.2 9.8-1.1 26.6-5.5 33.1-8.7 19.7-9.5 29.9-25.6 28.6-45.1-1-15.9-9.6-27-25-32.8-10.3-3.8-21.3-4.9-49-5-31.2 0-33.4-.3-38.4-4.6-3.6-3.1-3.8-3.6-3.8-9.2 0-5 .5-6.6 2.8-9.6 4.9-6.4 6.7-6.9 28.1-7.1 17.7-.2 19.6-.4 26.1-2.8 8.5-3.1 18.6-8 22.3-10.8 15.4-11.9 22.3-25.6 21.6-43.1-.4-10.3-2.9-17.8-8.6-25.2-2.3-2.8-4.5-5.7-5-6.3-.6-.9 2.6-1.2 12.4-1.2 7.3 0 14.1-.1 15-.1 1.5-.1 1.7-1.2 1.5-9.3l-.2-9.3-27.5-.1c-22.8 0-28.2-.3-31.5-1.7-11.2-4.5-29-5.7-43.6-3.1zm25.9 9.9c1.7.3 4.4 1.9 6.1 3.5 7.1 6.8 10.2 18.7 10.6 40.5.4 25.3-1.9 36-9.4 43.5-8.1 8.1-17.9 8.5-25.9 1.2-5.5-5.1-8.3-11.5-9.8-23.2-.7-5.5-.7-31.2 0-34.8.3-1.5.8-4.7 1.2-7.2 1.3-9.5 5.2-16.9 11-20.9 5.3-3.6 9-4.2 16.2-2.6zm26.5 175.9c15.6 1.2 24.3 7.7 23 17-1.4 10.2-13.2 17.8-31.8 20.6-9.6 1.4-38 .5-45-1.4-26.3-7.3-28.3-33-2.8-36.4 6.4-.9 44.3-.7 56.6.2z"/></svg>